<svg width="33" height="37" viewBox="0 0 33 37" fill="none" xmlns="http://www.w3.org/2000/svg">
<path d="M11 37H25.6667V32.375C30.085 29.3595 33 24.272 33 18.5V3.7C33 2.7187 32.6137 1.77759 31.9261 1.0837C31.2384 0.38982 30.3058 0 29.3333 0H22C21.0275 0 20.0949 0.38982 19.4073 1.0837C18.7196 1.77759 18.3333 2.7187 18.3333 3.7V18.5H0C0 24.2165 3.66667 29.6 11 32.375V37ZM4.19833 22.2H28.8017C28.2867 23.9412 27.4152 25.554 26.2435 26.9338C25.0719 28.3137 23.6262 29.43 22 30.2105V33.3H14.6667V30.2105C11 29.6 5.24333 25.7335 4.19833 22.2ZM22 3.7H29.3333V18.5H22V3.7ZM23.8333 5.55V11.1H27.5V5.55H23.8333Z" fill="#C1C1C1"/>
</svg>
