<svg width="47" height="37" viewBox="0 0 47 37" fill="none" xmlns="http://www.w3.org/2000/svg">
<path d="M36.7308 16.8846H6.96155V6.13462C6.96482 5.03905 7.40148 3.9893 8.17616 3.21462C8.95085 2.43993 10.0006 2.00327 11.0962 2H35.9039C36.9994 2.00327 38.0492 2.43993 38.8239 3.21462C39.5985 3.9893 40.0352 5.03905 40.0385 6.13462V16.8846H36.7308Z" stroke="#C1C1C1" stroke-width="3" stroke-linecap="round" stroke-linejoin="round"/>
<path d="M2 35.0768V23.4999C2.00518 21.747 2.70382 20.0674 3.94332 18.8278C5.18283 17.5883 6.86247 16.8897 8.61538 16.8845H38.3846C40.1375 16.8897 41.8172 17.5883 43.0567 18.8278C44.2962 20.0674 44.9948 21.747 45 23.4999V35.0768" stroke="#C1C1C1" stroke-width="3" stroke-linecap="round" stroke-linejoin="round"/>
<path d="M2 35.077V34.2501C2.00191 33.5927 2.26389 32.9628 2.72871 32.498C3.19353 32.0332 3.82342 31.7712 4.48077 31.7693H42.5192C43.1766 31.7712 43.8065 32.0332 44.2713 32.498C44.7361 32.9628 44.9981 33.5927 45 34.2501V35.077" stroke="#C1C1C1" stroke-width="3" stroke-linecap="round" stroke-linejoin="round"/>
<path d="M8.61539 16.8846V15.2308C8.61784 14.3543 8.96712 13.5144 9.5869 12.8946C10.2067 12.2748 11.0466 11.9256 11.9231 11.9231H20.1923C21.0688 11.9256 21.9087 12.2748 22.5285 12.8946C23.1483 13.5144 23.4975 14.3543 23.5 15.2308V16.8846" stroke="#C1C1C1" stroke-width="3" stroke-linecap="round" stroke-linejoin="round"/>
<path d="M23.5 16.8846V15.2308C23.5025 14.3543 23.8517 13.5144 24.4715 12.8946C25.0913 12.2748 25.9312 11.9256 26.8077 11.9231H35.0769C35.9534 11.9256 36.7933 12.2748 37.4131 12.8946C38.0329 13.5144 38.3822 14.3543 38.3846 15.2308V16.8846" stroke="#C1C1C1" stroke-width="3" stroke-linecap="round" stroke-linejoin="round"/>
</svg>
