<svg width="36" height="48" viewBox="0 0 36 48" fill="none" xmlns="http://www.w3.org/2000/svg">
<path d="M28.8 48C32.784 48 36 44.784 36 40.8C36 36.816 32.784 33.6 28.8 33.6C25.68 33.6 23.04 35.616 22.032 38.4H9.936L14.712 31.056C16.0974 31.2473 17.5026 31.2473 18.888 31.056L21.336 34.824C22.344 33.552 23.64 32.544 25.176 31.92L23.736 29.688C26.676 28.3579 29.1702 26.2083 30.9197 23.4968C32.6692 20.7853 33.5998 17.6269 33.6 14.4H0C0 21.216 4.056 27.048 9.888 29.688L0.408 44.28C0.0629302 44.812 -0.0575609 45.459 0.0728497 46.0796C0.20326 46.7001 0.573972 47.2439 1.104 47.592C1.63602 47.9371 2.28299 48.0576 2.90356 47.9272C3.52414 47.7967 4.06788 47.426 4.416 46.896L6.816 43.176H22.032C23.04 45.984 25.68 48 28.8 48ZM28.8 38.4C30.12 38.4 31.2 39.48 31.2 40.8C31.2 42.12 30.12 43.2 28.8 43.2C27.48 43.2 26.4 42.12 26.4 40.8C26.4 39.48 27.48 38.4 28.8 38.4ZM5.808 19.2H27.792C25.944 23.424 21.696 26.4 16.8 26.4C11.904 26.4 7.656 23.424 5.808 19.2V19.2ZM10.584 12H12.984C13.344 9.24 13.536 8.064 10.848 4.896C9.84 3.696 9.216 3.048 9.744 0H7.368C6.864 2.664 7.44 4.92 9.504 7.104C10.032 7.68 11.4 8.712 10.584 12V12ZM16.536 12H18.936C19.296 9.24 19.488 8.064 16.8 4.896C15.792 3.696 15.168 3.024 15.696 0H13.32C12.816 2.664 13.392 4.92 15.456 7.104C16.008 7.68 17.376 8.712 16.536 12V12ZM22.584 12H24.984C25.344 9.24 25.536 8.064 22.848 4.896C21.84 3.696 21.216 3.048 21.744 0H19.368C18.864 2.664 19.44 4.92 21.504 7.104C22.032 7.68 23.4 8.712 22.584 12V12Z" fill="#FFF5F5"/>
</svg>
