<svg width="48" height="41" viewBox="0 0 48 41" fill="none" xmlns="http://www.w3.org/2000/svg">
<path d="M5.4432 38.5884H4.8C3.52696 38.5884 2.30606 38.0802 1.40589 37.1756C0.505713 36.2711 0 35.0442 0 33.7649V4.82355C0 3.54427 0.505713 2.31738 1.40589 1.41279C2.30606 0.508194 3.52696 0 4.8 0H43.2C44.473 0 45.6939 0.508194 46.5941 1.41279C47.4943 2.31738 48 3.54427 48 4.82355V33.7649C48 35.0442 47.4943 36.2711 46.5941 37.1756C45.6939 38.0802 44.473 38.5884 43.2 38.5884H42.5568C42.1355 39.3217 41.5296 39.9305 40.7999 40.3538C40.0702 40.7771 39.2425 41 38.4 41C37.5575 41 36.7298 40.7771 36.0001 40.3538C35.2704 39.9305 34.6645 39.3217 34.2432 38.5884H13.7568C13.3355 39.3217 12.7296 39.9305 11.9999 40.3538C11.2702 40.7771 10.4425 41 9.6 41C8.75747 41 7.92977 40.7771 7.20011 40.3538C6.47044 39.9305 5.8645 39.3217 5.4432 38.5884ZM4.8 4.82355V33.7649H43.2V4.82355H4.8ZM9.6 19.2942H38.4V28.9413H9.6V19.2942ZM9.6 9.64711H21.6V14.4707H9.6V9.64711ZM19.2 21.706V24.1178H28.8V21.706H19.2ZM28.8 14.4707C28.1635 14.4707 27.553 14.2166 27.1029 13.7643C26.6529 13.312 26.4 12.6985 26.4 12.0589C26.4 11.4192 26.6529 10.8058 27.1029 10.3535C27.553 9.90121 28.1635 9.64711 28.8 9.64711C29.4365 9.64711 30.047 9.90121 30.4971 10.3535C30.9471 10.8058 31.2 11.4192 31.2 12.0589C31.2 12.6985 30.9471 13.312 30.4971 13.7643C30.047 14.2166 29.4365 14.4707 28.8 14.4707ZM36 14.4707C35.3635 14.4707 34.753 14.2166 34.3029 13.7643C33.8529 13.312 33.6 12.6985 33.6 12.0589C33.6 11.4192 33.8529 10.8058 34.3029 10.3535C34.753 9.90121 35.3635 9.64711 36 9.64711C36.6365 9.64711 37.247 9.90121 37.6971 10.3535C38.1471 10.8058 38.4 11.4192 38.4 12.0589C38.4 12.6985 38.1471 13.312 37.6971 13.7643C37.247 14.2166 36.6365 14.4707 36 14.4707Z" fill="#EE777F"/>
</svg>
