<svg width="48" height="26" viewBox="0 0 48 26" fill="none" xmlns="http://www.w3.org/2000/svg">
<path d="M14 0H18C19.0609 0 20.0783 0.421427 20.8284 1.17157C21.5786 1.92172 22 2.93913 22 4V12H10V4C10 2.93913 10.4214 1.92172 11.1716 1.17157C11.9217 0.421427 12.9391 0 14 0ZM30 0H34C35.0609 0 36.0783 0.421427 36.8284 1.17157C37.5786 1.92172 38 2.93913 38 4V12H26V4C26 2.93913 26.4214 1.92172 27.1716 1.17157C27.9217 0.421427 28.9391 0 30 0ZM2 6H4C4.53043 6 5.03914 6.21071 5.41421 6.58579C5.78929 6.96086 6 7.46957 6 8V12C6 13.0609 6.42143 14.0783 7.17157 14.8284C7.92172 15.5786 8.93913 16 10 16H38C39.0609 16 40.0783 15.5786 40.8284 14.8284C41.5786 14.0783 42 13.0609 42 12V8C42 7.46957 42.2107 6.96086 42.5858 6.58579C42.9609 6.21071 43.4696 6 44 6H46C46.5304 6 47.0391 6.21071 47.4142 6.58579C47.7893 6.96086 48 7.46957 48 8V26H42V22H6V26H0V8C0 7.46957 0.210714 6.96086 0.585786 6.58579C0.960859 6.21071 1.46957 6 2 6Z" fill="#C1C1C1"/>
</svg>
