<svg width="43" height="30" viewBox="0 0 43 30" fill="none" xmlns="http://www.w3.org/2000/svg">
<path d="M4.3 0C3.15957 0 2.06585 0.451529 1.25944 1.25526C0.453034 2.05898 0 3.14907 0 4.28571V25.7143C0 26.8509 0.453034 27.941 1.25944 28.7447C2.06585 29.5485 3.15957 30 4.3 30H38.7C39.8404 30 40.9342 29.5485 41.7406 28.7447C42.547 27.941 43 26.8509 43 25.7143V4.28571C43 3.14907 42.547 2.05898 41.7406 1.25526C40.9342 0.451529 39.8404 0 38.7 0H4.3ZM4.3 4.28571H30.1V25.7143H4.3V4.28571ZM36.55 4.28571C37.1202 4.28571 37.6671 4.51148 38.0703 4.91334C38.4735 5.31521 38.7 5.86025 38.7 6.42857C38.7 6.99689 38.4735 7.54194 38.0703 7.9438C37.6671 8.34566 37.1202 8.57143 36.55 8.57143C35.9798 8.57143 35.4329 8.34566 35.0297 7.9438C34.6265 7.54194 34.4 6.99689 34.4 6.42857C34.4 5.86025 34.6265 5.31521 35.0297 4.91334C35.4329 4.51148 35.9798 4.28571 36.55 4.28571V4.28571ZM23.65 8.57143V21.4286H27.95V8.57143H23.65ZM36.55 12.8571C37.1202 12.8571 37.6671 13.0829 38.0703 13.4848C38.4735 13.8866 38.7 14.4317 38.7 15C38.7 15.5683 38.4735 16.1134 38.0703 16.5152C37.6671 16.9171 37.1202 17.1429 36.55 17.1429C35.9798 17.1429 35.4329 16.9171 35.0297 16.5152C34.6265 16.1134 34.4 15.5683 34.4 15C34.4 14.4317 34.6265 13.8866 35.0297 13.4848C35.4329 13.0829 35.9798 12.8571 36.55 12.8571Z" fill="white"/>
</svg>
