<svg width="45" height="45" viewBox="0 0 45 45" fill="none" xmlns="http://www.w3.org/2000/svg">
<path d="M43.2119 1.4511L43.054 1.29164C42.6459 0.882233 42.1611 0.557391 41.6273 0.335743C41.0934 0.114095 40.5211 0 39.943 0C39.365 0 38.7927 0.114095 38.2588 0.335743C37.725 0.557391 37.2402 0.882233 36.8321 1.29164L29.3754 8.7721C21.9528 4.1567 12.0819 5.0734 5.6376 11.5378C-1.87994 19.0805 -1.87846 31.3047 5.6376 38.843C13.1544 46.3843 25.34 46.3857 32.859 38.843C39.2529 32.4305 40.203 22.6309 35.7226 15.2053L43.2119 7.69149C44.037 6.86268 44.5003 5.74079 44.5003 4.57129C44.5003 3.4018 44.037 2.27991 43.2119 1.4511ZM28.2866 30.1952C25.2488 36.9495 18.1503 40.3248 12.4328 37.7335C6.71079 35.1406 4.53696 27.5615 7.57261 20.8071C10.6097 14.0498 17.7067 10.676 23.4265 13.2673C29.1455 15.8587 31.3215 23.4393 28.2866 30.1952ZM39.761 7.52091C39.0284 7.51933 38.3264 7.22701 37.8092 6.70815C37.292 6.18929 37.0019 5.48634 37.0027 4.75374C37.0027 3.22665 38.2383 1.98807 39.761 1.98807C41.2836 1.98807 42.5192 3.22665 42.5192 4.75374C42.52 5.48634 42.2299 6.18929 41.7128 6.70815C41.1956 7.22701 40.4936 7.51933 39.761 7.52091Z" fill="white"/>
<path d="M15.5396 31.124C18.8165 31.124 21.4729 28.4676 21.4729 25.1907C21.4729 21.9138 18.8165 19.2573 15.5396 19.2573C12.2627 19.2573 9.60626 21.9138 9.60626 25.1907C9.60626 28.4676 12.2627 31.124 15.5396 31.124Z" fill="white"/>
</svg>
