<svg width="27" height="28" viewBox="0 0 27 28" fill="none" xmlns="http://www.w3.org/2000/svg">
<path d="M12.7503 0.00352921C5.70039 0.00352921 0.000492142 3.98198 0.000492142 8.84452C0.000492142 10.6127 0.750479 12.2336 2.10045 13.7071C0.717328 15.4821 -0.0218535 17.6605 0.000492142 19.8958V25.053C0.000492142 26.6739 1.35047 28 3.00044 28H22.5001C23.2957 28 24.0588 27.6895 24.6214 27.1368C25.184 26.5842 25.5 25.8346 25.5 25.053V19.8958C25.5 18.1276 25.05 16.3594 24.0001 14.7385L27 11.7915L22.5001 7.37102L19.3501 10.4654C17.1948 9.31434 14.7661 8.74854 12.3142 8.82624C9.86224 8.90394 7.47571 9.62233 5.40039 10.9074C4.83516 10.3633 4.51168 9.62185 4.50041 8.84452C4.50041 6.19222 8.25034 3.98197 12.7503 3.98197C14.8502 3.98197 16.9502 4.57137 18.4502 5.45547L21.4501 2.50848C18.8826 0.811976 15.8438 -0.0629804 12.7503 0.00352921ZM12.7503 11.7915C18.0002 11.7915 22.5001 16.212 22.5001 19.8958V25.053H3.00044V19.8958C3.00044 16.212 7.50036 11.7915 12.7503 11.7915ZM13.5002 14.0018C9.00033 14.0018 6.00038 16.212 6.00038 20.6325V22.106H9.00033V20.6325C9.00033 19.159 9.00033 15.4753 13.5002 14.0018Z" fill="#FFF5F5"/>
</svg>
