<svg width="29" height="24" viewBox="0 0 29 24" fill="none" xmlns="http://www.w3.org/2000/svg">
<path d="M26.1 0H2.9C2.13087 0 1.39325 0.252856 0.84939 0.702944C0.305535 1.15303 0 1.76348 0 2.4V16.8C0 17.4365 0.305535 18.047 0.84939 18.4971C1.39325 18.9471 2.13087 19.2 2.9 19.2H11.6V21.6H7.25V24H21.75V21.6H17.4V19.2H26.1C26.8691 19.2 27.6068 18.9471 28.1506 18.4971C28.6945 18.047 29 17.4365 29 16.8V2.4C29 1.76348 28.6945 1.15303 28.1506 0.702944C27.6068 0.252856 26.8691 0 26.1 0ZM26.1 16.8H2.9V2.4H26.1V16.8Z" fill="#FFF5F5"/>
</svg>
