<svg width="117" height="117" viewBox="0 0 117 117" fill="none" xmlns="http://www.w3.org/2000/svg">
<path d="M58.5 76.9737C48.3395 76.9737 40.0263 68.6605 40.0263 58.5C40.0263 48.3395 48.3395 40.0263 58.5 40.0263V0C26.1711 0 0 26.1711 0 58.5C0 90.8289 26.1711 117 58.5 117C72.0474 117 84.6711 112.382 94.8316 104.376L70.2 72.9711C66.8132 75.4342 62.8105 76.9737 58.5 76.9737Z" fill="#EE777F"/>
<path d="M76.9737 58.5H117C117 26.1711 90.8289 0 58.5 0V40.0263C68.6605 40.0263 76.9737 48.3395 76.9737 58.5Z" fill="#65BDC0"/>
<path d="M117 58.5H76.9737C76.9737 64.35 74.2026 69.5842 69.8921 72.9711L94.5237 104.376C108.379 93.6 117 76.9737 117 58.5Z" fill="#1D2343"/>
</svg>
