<svg width="29" height="30" viewBox="0 0 29 30" fill="none" xmlns="http://www.w3.org/2000/svg">
<path d="M5.8 18H8.7L13.05 22.5H10.15L5.8 18ZM2.9 3H4.35V1.5C4.35 1.10218 4.50277 0.720644 4.7747 0.43934C5.04662 0.158035 5.41544 0 5.8 0H11.6C11.9846 0 12.3534 0.158035 12.6253 0.43934C12.8972 0.720644 13.05 1.10218 13.05 1.5V3H15.95V1.5C15.95 1.10218 16.1028 0.720644 16.3747 0.43934C16.6466 0.158035 17.0154 0 17.4 0H23.2C23.5846 0 23.9534 0.158035 24.2253 0.43934C24.4972 0.720644 24.65 1.10218 24.65 1.5V3H26.1C26.8691 3 27.6068 3.31607 28.1506 3.87868C28.6945 4.44129 29 5.20435 29 6V25.5C29 26.2956 28.6945 27.0587 28.1506 27.6213C27.6068 28.1839 26.8691 28.5 26.1 28.5V30H21.75V28.5H7.25V30H2.9V28.5C2.13087 28.5 1.39325 28.1839 0.84939 27.6213C0.305535 27.0587 0 26.2956 0 25.5V6C0 5.20435 0.305535 4.44129 0.84939 3.87868C1.39325 3.31607 2.13087 3 2.9 3V3ZM23.2 7.5C23.5846 7.5 23.9534 7.65804 24.2253 7.93934C24.4972 8.22064 24.65 8.60218 24.65 9C24.65 9.39782 24.4972 9.77935 24.2253 10.0607C23.9534 10.342 23.5846 10.5 23.2 10.5C22.8154 10.5 22.4466 10.342 22.1747 10.0607C21.9028 9.77935 21.75 9.39782 21.75 9C21.75 8.60218 21.9028 8.22064 22.1747 7.93934C22.4466 7.65804 22.8154 7.5 23.2 7.5V7.5ZM17.4 7.5C17.7846 7.5 18.1534 7.65804 18.4253 7.93934C18.6972 8.22064 18.85 8.60218 18.85 9C18.85 9.39782 18.6972 9.77935 18.4253 10.0607C18.1534 10.342 17.7846 10.5 17.4 10.5C17.0154 10.5 16.6466 10.342 16.3747 10.0607C16.1028 9.77935 15.95 9.39782 15.95 9C15.95 8.60218 16.1028 8.22064 16.3747 7.93934C16.6466 7.65804 17.0154 7.5 17.4 7.5V7.5ZM26.1 6H2.9V12H26.1V6ZM2.9 25.5H26.1V15H2.9V25.5ZM5.8 7.5C6.18456 7.5 6.55338 7.65804 6.8253 7.93934C7.09723 8.22064 7.25 8.60218 7.25 9C7.25 9.39782 7.09723 9.77935 6.8253 10.0607C6.55338 10.342 6.18456 10.5 5.8 10.5C5.41544 10.5 5.04662 10.342 4.7747 10.0607C4.50277 9.77935 4.35 9.39782 4.35 9C4.35 8.60218 4.50277 8.22064 4.7747 7.93934C5.04662 7.65804 5.41544 7.5 5.8 7.5V7.5ZM15.95 18H18.85L23.2 22.5H20.3L15.95 18Z" fill="white"/>
</svg>
