<svg width="25" height="28" viewBox="0 0 25 28" fill="none" xmlns="http://www.w3.org/2000/svg">
<path d="M1.38889 27.7778H23.6111C23.9795 27.7778 24.3327 27.6314 24.5932 27.371C24.8537 27.1105 25 26.7572 25 26.3889V4.16667C25 1.86944 23.1306 0 20.8333 0H4.16667C1.86944 0 0 1.86944 0 4.16667V26.3889C0 26.7572 0.146329 27.1105 0.406796 27.371C0.667263 27.6314 1.02053 27.7778 1.38889 27.7778ZM20.8333 2.67222C21.0157 2.67222 21.1963 2.70815 21.3648 2.77795C21.5333 2.84774 21.6865 2.95005 21.8154 3.07902C21.9444 3.20799 22.0467 3.3611 22.1165 3.52961C22.1863 3.69811 22.2222 3.87872 22.2222 4.06111C22.2222 4.2435 22.1863 4.42411 22.1165 4.59262C22.0467 4.76112 21.9444 4.91423 21.8154 5.0432C21.6865 5.17217 21.5333 5.27448 21.3648 5.34428C21.1963 5.41407 21.0157 5.45 20.8333 5.45C20.465 5.45 20.1117 5.30367 19.8512 5.0432C19.5908 4.78274 19.4444 4.42947 19.4444 4.06111C19.4444 3.69275 19.5908 3.33949 19.8512 3.07902C20.1117 2.81855 20.465 2.67222 20.8333 2.67222ZM16.6667 2.67222C16.8491 2.67222 17.0297 2.70815 17.1982 2.77795C17.3667 2.84774 17.5198 2.95005 17.6488 3.07902C17.7777 3.20799 17.88 3.3611 17.9498 3.52961C18.0196 3.69811 18.0556 3.87872 18.0556 4.06111C18.0556 4.2435 18.0196 4.42411 17.9498 4.59262C17.88 4.76112 17.7777 4.91423 17.6488 5.0432C17.5198 5.17217 17.3667 5.27448 17.1982 5.34428C17.0297 5.41407 16.8491 5.45 16.6667 5.45C16.2983 5.45 15.945 5.30367 15.6846 5.0432C15.4241 4.78274 15.2778 4.42947 15.2778 4.06111C15.2778 3.69275 15.4241 3.33949 15.6846 3.07902C15.945 2.81855 16.2983 2.67222 16.6667 2.67222ZM12.5 6.94444C17.0958 6.94444 20.8333 10.6819 20.8333 15.2778C20.8333 19.8736 17.0958 23.6111 12.5 23.6111C7.90417 23.6111 4.16667 19.8736 4.16667 15.2778C4.16667 10.6819 7.90417 6.94444 12.5 6.94444Z" fill="white"/>
</svg>
