<svg width="22" height="22" viewBox="0 0 22 22" fill="none" xmlns="http://www.w3.org/2000/svg">
<path d="M19.25 0H2.75C1.232 0 0 1.232 0 2.75V19.25C0 20.768 1.232 22 2.75 22H19.25C20.768 22 22 20.768 22 19.25V2.75C22 1.232 20.768 0 19.25 0ZM13.9329 4.03219C13.9329 3.63137 14.2622 3.29794 14.6671 3.29794C15.0721 3.29794 15.4014 3.63069 15.4014 4.03219V13.8291C15.3899 14.016 15.3076 14.1916 15.1711 14.3199C15.0347 14.4483 14.8544 14.5197 14.6671 14.5197C14.4798 14.5197 14.2995 14.4483 14.1631 14.3199C14.0267 14.1916 13.9443 14.016 13.9329 13.8291V4.03219ZM10.2657 3.65956C10.2739 3.47032 10.3549 3.29156 10.4917 3.16055C10.6285 3.02954 10.8106 2.95641 11 2.95641C11.1894 2.95641 11.3715 3.02954 11.5083 3.16055C11.6451 3.29156 11.7261 3.47032 11.7343 3.65956V14.2979C11.7261 14.4872 11.6451 14.6659 11.5083 14.797C11.3715 14.928 11.1894 15.0011 11 15.0011C10.8106 15.0011 10.6285 14.928 10.4917 14.797C10.3549 14.6659 10.2739 14.4872 10.2657 14.2979V3.65956ZM6.59931 4.03219C6.59931 3.63137 6.92863 3.29794 7.33356 3.29794C7.7385 3.29794 8.06781 3.63069 8.06781 4.03219V13.8291C8.05637 14.016 7.97402 14.1916 7.83758 14.3199C7.70114 14.4483 7.52088 14.5197 7.33356 14.5197C7.14625 14.5197 6.96598 14.4483 6.82954 14.3199C6.6931 14.1916 6.61076 14.016 6.59931 13.8291V4.03219ZM2.93287 5.5C2.94432 5.31303 3.02666 5.13747 3.1631 5.00913C3.29955 4.88079 3.47981 4.80933 3.66712 4.80933C3.85444 4.80933 4.0347 4.88079 4.17115 5.00913C4.30759 5.13747 4.38993 5.31303 4.40137 5.5V12.0959C4.38993 12.2828 4.30759 12.4584 4.17115 12.5867C4.0347 12.7151 3.85444 12.7865 3.66712 12.7865C3.47981 12.7865 3.29955 12.7151 3.1631 12.5867C3.02666 12.4584 2.94432 12.2828 2.93287 12.0959V5.5ZM18.8093 16.6863C18.6986 16.7833 15.9803 19.0637 11 19.0637C6.01975 19.0637 3.30137 16.7826 3.19069 16.6863C3.11746 16.6236 3.05731 16.5471 3.01369 16.4612C2.97007 16.3752 2.94384 16.2815 2.9365 16.1854C2.92915 16.0893 2.94084 15.9926 2.97089 15.9011C3.00094 15.8095 3.04877 15.7247 3.11162 15.6516C3.37287 15.3436 3.83488 15.3079 4.14288 15.5691C4.18619 15.6049 6.61031 17.5959 11 17.5959C15.444 17.5959 17.8324 15.5904 17.8537 15.5726C18.1617 15.3079 18.6237 15.3436 18.8884 15.6516C19.1531 15.9596 19.1173 16.4216 18.8093 16.6863ZM19.0671 12.0959C19.0557 12.2828 18.9733 12.4584 18.8369 12.5867C18.7005 12.7151 18.5202 12.7865 18.3329 12.7865C18.1456 12.7865 17.9653 12.7151 17.8289 12.5867C17.6924 12.4584 17.6101 12.2828 17.5986 12.0959V5.5C17.6101 5.31303 17.6924 5.13747 17.8289 5.00913C17.9653 4.88079 18.1456 4.80933 18.3329 4.80933C18.5202 4.80933 18.7005 4.88079 18.8369 5.00913C18.9733 5.13747 19.0557 5.31303 19.0671 5.5V12.0959Z" fill="white"/>
</svg>
