<svg width="25" height="26" viewBox="0 0 25 26" fill="none" xmlns="http://www.w3.org/2000/svg">
<path d="M23.6111 5.79255e-05C23.3993 -0.0018826 23.1901 0.0449577 23 0.136839L6.94443 4.10349C6.57607 4.10349 6.2228 4.2476 5.96234 4.50411C5.70187 4.76063 5.55554 5.10854 5.55554 5.4713V18.0278C4.72117 17.7373 3.81454 17.716 2.96703 17.9669C2.11952 18.2178 1.37515 18.728 0.841777 19.4235C0.308404 20.1189 0.0137357 20.9636 0.00046849 21.835C-0.0127987 22.7065 0.256025 23.5595 0.767987 24.2704C1.27995 24.9813 2.00845 25.5132 2.84795 25.7891C3.68744 26.0649 4.5943 26.0703 5.43714 25.8046C6.27998 25.5388 7.01502 25.0157 7.53573 24.311C8.05645 23.6063 8.3358 22.7566 8.33332 21.885V13.3499L22.2222 9.93037V13.9244C21.3878 13.6339 20.4812 13.6125 19.6337 13.8635C18.7862 14.1144 18.0418 14.6245 17.5084 15.32C16.9751 16.0155 16.6804 16.8602 16.6671 17.7316C16.6539 18.6031 16.9227 19.4561 17.4347 20.167C17.9466 20.8779 18.6751 21.4098 19.5146 21.6856C20.3541 21.9615 21.261 21.9669 22.1038 21.7012C22.9466 21.4354 23.6817 20.9123 24.2024 20.2076C24.7231 19.5028 25.0025 18.6531 25 17.7816V1.36787C25 1.0051 24.8537 0.657195 24.5932 0.40068C24.3327 0.144166 23.9795 5.79255e-05 23.6111 5.79255e-05ZM8.33332 10.6143V6.51084L22.2222 3.09131V7.19474L8.33332 10.6143Z" fill="white"/>
</svg>
