<svg width="68" height="65" viewBox="0 0 68 65" fill="none" xmlns="http://www.w3.org/2000/svg">
<path d="M37.9293 11.7567C45.5931 15.0743 49.6523 23.2235 48.256 31.0505C50.3742 32.8642 52.0738 35.109 53.2393 37.6324C54.4049 40.1557 55.0089 42.8984 55.0105 45.6739V46.2215C56.0538 45.8575 57.1519 45.6723 58.2579 45.6739C60.8417 45.6739 63.3196 46.692 65.1466 48.5042C66.9736 50.3163 68 52.7742 68 55.337C68 57.8998 66.9736 60.3576 65.1466 62.1698C63.3196 63.9819 60.8417 65 58.2579 65H16.042C12.597 65 9.29307 63.6426 6.85707 61.2263C4.42106 58.8101 3.05253 55.533 3.05253 52.116C3.05253 48.6989 4.42106 45.4218 6.85707 43.0056C9.29307 40.5893 12.597 39.2319 16.042 39.2319H16.9188C12.7947 34.2393 11.4957 27.1209 14.4183 20.7433C16.3371 16.4613 19.8908 13.1097 24.2991 11.4247C28.7074 9.73971 33.6097 9.85912 37.9293 11.7567V11.7567ZM35.299 17.6511C29.5511 15.0743 22.829 17.6833 20.2961 23.3523C18.8023 26.6378 19.0621 30.2775 20.6208 33.2086C22.4498 31.0552 24.732 29.3251 27.307 28.1398C29.882 26.9546 32.6875 26.3429 35.5263 26.3479C37.7994 26.3479 40.0076 26.7344 42.021 27.443C41.9247 25.3535 41.2453 23.3316 40.0584 21.6026C38.8715 19.8737 37.2238 18.5057 35.299 17.6511V17.6511ZM40.5597 5.86224C38.7736 5.0892 36.9876 4.54162 35.1366 4.18731L43.2225 0L46.1452 9.30872C44.4452 7.92001 42.5669 6.76108 40.5597 5.86224V5.86224ZM16.3343 8.43905C14.7431 9.5664 13.3467 10.8548 12.1452 12.2721L12.5024 3.22101L22.1146 5.4113C20.1012 6.08771 18.1528 7.11843 16.3343 8.43905ZM55.0105 25.4138C54.7182 23.5134 54.2961 21.6774 53.6791 19.9058L61.4078 24.7374L54.7507 31.9202C55.1079 29.8266 55.1729 27.6363 55.0105 25.4138V25.4138ZM6.4298 30.5352C6.65712 32.4678 7.07927 34.3038 7.69628 36.0109L0 31.1794L6.62464 24.0287C6.2999 26.1224 6.20248 28.3127 6.4298 30.5352V30.5352ZM58.2579 52.116H48.5158V45.6739C48.5158 42.2569 47.1472 38.9798 44.7112 36.5635C42.2752 34.1473 38.9713 32.7899 35.5263 32.7899C32.0812 32.7899 28.7773 34.1473 26.3413 36.5635C23.9053 38.9798 22.5368 42.2569 22.5368 45.6739H16.042C14.3195 45.6739 12.6675 46.3526 11.4495 47.5608C10.2315 48.7689 9.54728 50.4074 9.54728 52.116C9.54728 53.8245 10.2315 55.463 11.4495 56.6712C12.6675 57.8793 14.3195 58.558 16.042 58.558H58.2579C59.1191 58.558 59.9451 58.2186 60.5541 57.6146C61.1631 57.0105 61.5053 56.1912 61.5053 55.337C61.5053 54.4827 61.1631 53.6634 60.5541 53.0594C59.9451 52.4553 59.1191 52.116 58.2579 52.116Z" fill="#565A72"/>
</svg>
