<svg width="32" height="23" viewBox="0 0 32 23" fill="none" xmlns="http://www.w3.org/2000/svg">
<path d="M0 6.73252L2.90909 9.69024C10.1382 2.3403 21.8618 2.3403 29.0909 9.69024L32 6.73252C23.1709 -2.24417 8.84364 -2.24417 0 6.73252ZM11.6364 18.5634L16 23L20.3636 18.5634C19.7911 17.9798 19.111 17.5168 18.3622 17.2008C17.6134 16.8849 16.8107 16.7223 16 16.7223C15.1893 16.7223 14.3866 16.8849 13.6378 17.2008C12.889 17.5168 12.2089 17.9798 11.6364 18.5634ZM5.81818 12.648L8.72727 15.6057C10.6567 13.6457 13.2725 12.5447 16 12.5447C18.7275 12.5447 21.3433 13.6457 23.2727 15.6057L26.1818 12.648C20.5673 6.93956 11.4473 6.93956 5.81818 12.648Z" fill="white"/>
</svg>
